<svg xmlns="http://www.w3.org/2000/svg" viewBox="0 0 94 116">
    <title>AppSec</title>
    <g fill="#ff1243">
        <path
            d="M92.35 13.08A162.3 162.3 0 0169 11.19C58.54 9.39 48.17.6 48.07.51a2.2 2.2 0 00-.26-.15 1.43 1.43 0 00-.21-.12 1.66 1.66 0 00-1.2 0 1.43 1.43 0 00-.21.12 2.2 2.2 0 00-.26.15C45.83.6 35.46 9.39 25 11.19a162.3 162.3 0 01-23.35 1.89A1.63 1.63 0 000 14.72V71.5c0 .78.23 19.39 19.92 30 18.87 10.2 26.29 13.73 26.37 13.76a1.57 1.57 0 001.34 0c.07 0 7.5-3.56 26.37-13.76 19.76-10.61 20-29.22 20-30V14.72a1.63 1.63 0 00-1.65-1.64zm-1.64 58.41c0 .71-.28 17.47-18.19 27.14-13 7-20.44 10.82-23.88 12.53V89.3a1.64 1.64 0 10-3.28 0v21.86c-3.44-1.71-10.9-5.52-23.87-12.53C3.57 89 3.3 72.2 3.29 71.5V16.34a159.65 159.65 0 0022.27-1.91C33.67 13 41.41 8 45.36 5.12V14a1.64 1.64 0 003.28 0V5.12c4 2.9 11.69 7.91 19.8 9.31a159.65 159.65 0 0022.27 1.91v55.15z" />
        <path
            d="M34.44 64.66a1.61 1.61 0 01-.86-.25l-14.76-9.16a1.66 1.66 0 01-.78-1.4 1.64 1.64 0 01.78-1.4l14.76-9.17a1.65 1.65 0 011.74 2.81l-12.5 7.76 12.5 7.76a1.65 1.65 0 01.53 2.27 1.63 1.63 0 01-1.41.78zM59.56 64.66a1.65 1.65 0 01-.87-3l12.49-7.76-12.49-7.81a1.65 1.65 0 111.74-2.81l14.75 9.17a1.65 1.65 0 010 2.8l-14.75 9.16a1.65 1.65 0 01-.87.25zM40.61 72.14A1.58 1.58 0 0140 72a1.66 1.66 0 01-1-2.13l12.85-33.25a1.65 1.65 0 113.08 1.18L42.15 71.08a1.64 1.64 0 01-1.54 1.06z" />
    </g>
</svg>