<svg xmlns="http://www.w3.org/2000/svg" viewBox="0 0 94 154">
    <title>AppSec</title>
    <g fill="#ff1243">
        <path
            d="M92.35 13.08A162.3 162.3 0 0169 11.19C58.54 9.39 48.17.6 48.07.51a2.2 2.2 0 00-.26-.15 1.43 1.43 0 00-.21-.12 1.66 1.66 0 00-1.2 0 1.43 1.43 0 00-.21.12 2.2 2.2 0 00-.26.15C45.83.6 35.46 9.39 25 11.19a162.3 162.3 0 01-23.35 1.89A1.63 1.63 0 000 14.72V71.5c0 .78.23 19.39 19.92 30 18.87 10.2 26.29 13.73 26.37 13.76a1.57 1.57 0 001.34 0c.07 0 7.5-3.56 26.37-13.76 19.76-10.61 20-29.22 20-30V14.72a1.63 1.63 0 00-1.65-1.64zm-1.64 58.41c0 .71-.28 17.47-18.19 27.14-13 7-20.44 10.82-23.88 12.53V89.3a1.64 1.64 0 10-3.28 0v21.86c-3.44-1.71-10.9-5.52-23.87-12.53C3.57 89 3.3 72.2 3.29 71.5V16.34a159.65 159.65 0 0022.27-1.91C33.67 13 41.41 8 45.36 5.12V14a1.64 1.64 0 003.28 0V5.12c4 2.9 11.69 7.91 19.8 9.31a159.65 159.65 0 0022.27 1.91v55.15z" />
        <path
            d="M34.44 64.66a1.61 1.61 0 01-.86-.25l-14.76-9.16a1.66 1.66 0 01-.78-1.4 1.64 1.64 0 01.78-1.4l14.76-9.17a1.65 1.65 0 011.74 2.81l-12.5 7.76 12.5 7.76a1.65 1.65 0 01.53 2.27 1.63 1.63 0 01-1.41.78zM59.56 64.66a1.65 1.65 0 01-.87-3l12.49-7.76-12.49-7.81a1.65 1.65 0 111.74-2.81l14.75 9.17a1.65 1.65 0 010 2.8l-14.75 9.16a1.65 1.65 0 01-.87.25zM40.61 72.14A1.58 1.58 0 0140 72a1.66 1.66 0 01-1-2.13l12.85-33.25a1.65 1.65 0 113.08 1.18L42.15 71.08a1.64 1.64 0 01-1.54 1.06z" />
        <path
            d="M21.33 148.81c0 .18-.1.26-.31.26h-1.61a.43.43 0 01-.43-.28l-1.61-3.94h-7.8L8 148.79a.41.41 0 01-.44.28H5.93a.32.32 0 01-.28-.12.26.26 0 010-.28l6.77-16.11a.43.43 0 01.43-.29h1.27a.43.43 0 01.43.29l6.77 16.11a.28.28 0 01.01.14zm-4.8-6l-3-7.44-3.05 7.44zM23.51 153.78a.38.38 0 01-.09-.27v-15.14a.39.39 0 01.29-.41l1.36-.5.17-.05c.16 0 .24.1.24.31v1.2a4 4 0 011.62-1.2 6.25 6.25 0 015.28.29 5.25 5.25 0 012 2.11 6.59 6.59 0 01.73 3.17 6.22 6.22 0 01-.74 3 5.79 5.79 0 01-2.06 2.22 5.4 5.4 0 01-3 .83 5.62 5.62 0 01-2.29-.47 4.12 4.12 0 01-1.62-1.11v5.73a.38.38 0 01-.09.27.4.4 0 01-.27.09h-1.26a.4.4 0 01-.27-.07zm7.64-6.93a3.52 3.52 0 001.38-1.38 4.89 4.89 0 000-4.35 3.56 3.56 0 00-1.38-1.37 4 4 0 00-1.9-.47 3.69 3.69 0 00-2.71 1.06 3.93 3.93 0 00-1.08 2.95 4 4 0 001.08 3 3.73 3.73 0 002.71 1 3.85 3.85 0 001.9-.44zM37.73 153.78a.38.38 0 01-.09-.27v-15.14a.39.39 0 01.29-.41l1.36-.5.17-.05c.16 0 .24.1.24.31v1.2a4 4 0 011.62-1.2 6.25 6.25 0 015.28.29 5.25 5.25 0 012 2.11 6.59 6.59 0 01.73 3.17 6.34 6.34 0 01-.74 3 5.87 5.87 0 01-2.06 2.22 5.4 5.4 0 01-3 .83 5.62 5.62 0 01-2.29-.47 4.12 4.12 0 01-1.62-1.11v5.73a.38.38 0 01-.09.27.4.4 0 01-.27.09H38a.4.4 0 01-.27-.07zm7.64-6.93a3.52 3.52 0 001.38-1.38 4.89 4.89 0 000-4.35 3.56 3.56 0 00-1.38-1.37 4 4 0 00-1.9-.47 3.69 3.69 0 00-2.71 1.06 3.93 3.93 0 00-1.08 2.95 4 4 0 001.08 3 3.73 3.73 0 002.71 1 3.85 3.85 0 001.9-.44zM53.54 148.55a7.34 7.34 0 01-2.43-1.92.33.33 0 01-.1-.24.37.37 0 01.12-.27l1-1.1a.37.37 0 01.26-.12.44.44 0 01.27.14 6.42 6.42 0 002.23 1.71 6.69 6.69 0 002.62.5 3.67 3.67 0 002.46-.73 2.43 2.43 0 00.85-1.91 2 2 0 00-.42-1.34 3 3 0 00-1.19-.83 18.9 18.9 0 00-2.21-.73 22.54 22.54 0 01-2.79-1 4.65 4.65 0 01-1.79-1.4 3.87 3.87 0 01-.72-2.44 4.55 4.55 0 012.72-4.32 6.84 6.84 0 012.85-.57 6.92 6.92 0 012.88.56 6.41 6.41 0 012.02 1.46.35.35 0 01.12.24.52.52 0 01-.12.26l-.94 1.13a.31.31 0 01-.24.14.38.38 0 01-.26-.14 5.06 5.06 0 00-1.61-1.14 4.8 4.8 0 00-1.94-.37 3.75 3.75 0 00-2.44.72 2.31 2.31 0 00-.87 1.87 2 2 0 00.5 1.42 3.47 3.47 0 001.25.85 17 17 0 002 .63 20.82 20.82 0 012.92 1 4.59 4.59 0 011.79 1.39 3.9 3.9 0 01.66 2.36 5.65 5.65 0 01-.52 2.37 4.28 4.28 0 01-1.78 1.86 6.59 6.59 0 01-3.34.74 8.25 8.25 0 01-3.81-.78zM73.8 138a5.06 5.06 0 011.86 2 5.8 5.8 0 01.65 2.71v.89a.33.33 0 01-.1.26.36.36 0 01-.26.1h-8.66a3.94 3.94 0 001.22 2.42 3.81 3.81 0 002.69.94 6.1 6.1 0 003.62-1.32.36.36 0 01.24-.1.32.32 0 01.27.17l.67 1a.31.31 0 01.07.21.38.38 0 01-.14.29 7.09 7.09 0 01-2.21 1.3 7.45 7.45 0 01-2.55.45 6.36 6.36 0 01-3.21-.77 5.29 5.29 0 01-2.1-2.12 6.34 6.34 0 01-.73-3.08 6.48 6.48 0 01.78-3.24A5.39 5.39 0 0168 138a6 6 0 013-.74 5.2 5.2 0 012.8.74zm.33 4.09a3 3 0 00-.9-2 3.05 3.05 0 00-2.25-.82 3.64 3.64 0 00-2.35.76 3.58 3.58 0 00-1.27 2.07zM81.23 148.58a5.57 5.57 0 01-2.12-2.16 6.65 6.65 0 010-6.21 5.57 5.57 0 012.12-2.16 6.65 6.65 0 016.76.3.39.39 0 01.17.28.42.42 0 01-.08.22l-.62 1.08a.29.29 0 01-.48.14 6.31 6.31 0 00-1.13-.57 4.4 4.4 0 00-4.33.92 4.45 4.45 0 000 5.79 3.8 3.8 0 002.92 1.14 4.21 4.21 0 001.42-.21 5.43 5.43 0 001.17-.56l.19-.05a.34.34 0 01.29.19l.57 1.06c.1.21.12.34 0 .41a5.26 5.26 0 01-1.63.82 6.65 6.65 0 01-2.21.35 6.06 6.06 0 01-3.01-.78z" />
    </g>
</svg>